<?xml version="1.0" encoding="utf-8"?>
<!-- Generator: Adobe Illustrator 25.2.0, SVG Export Plug-In . SVG Version: 6.00 Build 0)  -->
<svg version="1.1" id="Layer_1" xmlns="http://www.w3.org/2000/svg" xmlns:xlink="http://www.w3.org/1999/xlink" x="0px" y="0px"
	 viewBox="0 0 100 100" style="enable-background:new 0 0 100 100;" xml:space="preserve">
<style type="text/css">
	.st0{fill:#F5F3FF;}
</style>
<path class="st0" d="M29.7,23.5V50c-4.3,2.5-7.1,7-7.2,12c0,7.9,6.4,14.4,14.3,14.4S51.2,69.9,51.2,62c0,0,0,0,0,0
	c-0.1-5-2.9-9.5-7.2-12v-2.4h4.8v-4.8H44V38h4.8v-4.9H44v-4.8h4.8v-4.8H29.7z M34.5,28.3h4.8v24.2l1.4,0.7c4.8,2.1,7.1,7.7,5,12.6
	c-2.1,4.8-7.7,7.1-12.6,5s-7.1-7.7-5-12.6c1-2.2,2.7-4,5-5l1.4-0.7L34.5,28.3z M72.7,28.3c0,0-4.8,7-4.8,9.6c-0.1,2.6,1.9,4.9,4.6,5
	c2.6,0.1,4.9-1.9,5-4.6c0-0.1,0-0.3,0-0.4C77.5,35.3,72.7,28.3,72.7,28.3z M63.2,42.8c0,0-4.8,7-4.8,9.6c0,2.6,2.1,4.8,4.8,4.8
	c2.6,0,4.8-2.1,4.8-4.8c0,0,0,0,0,0C67.9,49.8,63.2,42.8,63.2,42.8z M72.7,57.2c0,0-4.8,7-4.8,9.6c-0.1,2.6,1.9,4.9,4.6,5
	c2.6,0.1,4.9-1.9,5-4.6c0-0.1,0-0.3,0-0.4C77.5,64.2,72.7,57.2,72.7,57.2z"/>
</svg>
