<svg id="Layer_1" data-name="Layer 1" xmlns="http://www.w3.org/2000/svg" viewBox="0 0 100 100"><defs><style>.cls-1{fill:#272628;}</style></defs><path class="cls-1" d="M29.67,23.5V50A14.16,14.16,0,0,0,22.5,62a14.35,14.35,0,1,0,28.7,0A14.15,14.15,0,0,0,44,50V47.59H48.8V42.77H44V38H48.8V33.14H44V28.32H48.8V23.5Zm4.79,4.82h4.78V52.56l1.42.68a9.57,9.57,0,1,1-7.62,0l1.42-.68Zm38.26,0s-4.79,7-4.79,9.64a4.79,4.79,0,1,0,9.57,0C77.5,35.29,72.72,28.32,72.72,28.32ZM63.15,42.77s-4.78,7-4.78,9.64a4.78,4.78,0,1,0,9.56,0C67.93,49.75,63.15,42.77,63.15,42.77Zm9.57,14.46s-4.79,7-4.79,9.63a4.79,4.79,0,1,0,9.57,0C77.5,64.2,72.72,57.23,72.72,57.23Z"/></svg>