<svg id="Layer_1" data-name="Layer 1" xmlns="http://www.w3.org/2000/svg" viewBox="0 0 100 100"><defs><style>.cls-1{fill:#222;}</style></defs><path class="cls-1" d="M49.82,22.5a26.13,26.13,0,1,0,5.5,51.67A15,15,0,0,1,54,68.84a21.16,21.16,0,0,1-4.18.41A20.63,20.63,0,1,1,69.3,41.89l3.9,4.48c.49.55,1.51,1.73,2.72,3.36,0-.36,0-.75,0-1.11A26.14,26.14,0,0,0,49.82,22.5Zm0,11a15.13,15.13,0,0,0-15,13.75h5.53a9.54,9.54,0,0,1,12.56-7.73l-6.62,8.83,4.4,3.3,6.73-9a9.55,9.55,0,0,1,2,4.57h5.53A15.13,15.13,0,0,0,49.82,33.5ZM69.07,50s-9.62,11-9.62,17.88a9.63,9.63,0,0,0,19.25,0C78.7,61,69.07,50,69.07,50Z"/></svg>