<?xml version="1.0" encoding="utf-8"?>
<!-- Generator: Adobe Illustrator 25.2.0, SVG Export Plug-In . SVG Version: 6.00 Build 0)  -->
<svg version="1.1" id="Layer_1" xmlns="http://www.w3.org/2000/svg" xmlns:xlink="http://www.w3.org/1999/xlink" x="0px" y="0px"
	 viewBox="0 0 100 100" style="enable-background:new 0 0 100 100;" xml:space="preserve">
<style type="text/css">
	.st0{fill:#F5F3FF;}
</style>
<path class="st0" d="M49.8,22.5c-14.4,0-26.1,11.7-26.2,26.1s11.7,26.1,26.1,26.2c1.9,0,3.7-0.2,5.5-0.6c-0.8-1.7-1.2-3.5-1.3-5.3
	c-1.4,0.3-2.8,0.4-4.2,0.4c-11.4,0-20.6-9.2-20.7-20.6c0-11.4,9.2-20.6,20.6-20.7c8.8,0,16.6,5.6,19.5,13.9l3.9,4.5
	c0.5,0.5,1.5,1.7,2.7,3.4c0-0.4,0-0.8,0-1.1C75.9,34.2,64.2,22.5,49.8,22.5z M49.8,33.5c-7.8,0-14.3,6-15,13.8h5.5
	c0.7-5.2,5.5-8.9,10.7-8.2c0.6,0.1,1.2,0.2,1.8,0.4l-6.6,8.8l4.4,3.3l6.7-9c1.1,1.3,1.7,2.9,2,4.6H65C64.2,39.4,57.7,33.5,49.8,33.5
	z M69.1,50c0,0-9.6,11-9.6,17.9c0.2,5.3,4.6,9.5,9.9,9.3c5.1-0.2,9.2-4.2,9.3-9.3C78.7,61,69.1,50,69.1,50z"/>
</svg>
