<?xml version="1.0" encoding="utf-8"?>
<!-- Generator: Adobe Illustrator 25.2.0, SVG Export Plug-In . SVG Version: 6.00 Build 0)  -->
<svg version="1.1" id="Layer_1" xmlns="http://www.w3.org/2000/svg" xmlns:xlink="http://www.w3.org/1999/xlink" x="0px" y="0px"
	 viewBox="0 0 100 100" style="enable-background:new 0 0 100 100;" xml:space="preserve">
<style type="text/css">
	.st0{fill:#F5F3FF;}
</style>
<path class="st0" d="M65.3,29.5h-8.7v-10c0-1.2-0.9-2.3-2.2-2.3c0,0,0,0,0,0h-8.7c-1.2,0-2.2,1-2.2,2.3c0,0,0,0,0,0v10h-8.7L50,47.8
	L65.3,29.5z"/>
<path class="st0" d="M34.7,70.5h8.7v10c0,1.2,0.9,2.3,2.2,2.3c0,0,0,0,0,0h8.7c1.2,0,2.2-1,2.2-2.3c0,0,0,0,0,0v-10h8.7L50,52.2
	L34.7,70.5z"/>
</svg>
