<?xml version="1.0" encoding="utf-8"?>
<!-- Generator: Adobe Illustrator 25.2.0, SVG Export Plug-In . SVG Version: 6.00 Build 0)  -->
<svg version="1.1" id="Layer_1" xmlns="http://www.w3.org/2000/svg" xmlns:xlink="http://www.w3.org/1999/xlink" x="0px" y="0px"
	 viewBox="0 0 100 100" style="enable-background:new 0 0 100 100;" xml:space="preserve">
<style type="text/css">
	.st0{fill:#F5F3FF;}
</style>
<path class="st0" d="M53.2,55.2v-0.7h3.5c0.6,0.1,1.2-0.4,1.2-1s-0.4-1.2-1-1.2c-0.1,0-0.1,0-0.2,0h-3.5v-2.2h3.5
	c0.6,0.1,1.2-0.4,1.2-1s-0.4-1.2-1-1.2c-0.1,0-0.1,0-0.2,0h-3.5v-2.2h3.5c0.6,0,1.1-0.5,1.1-1.1s-0.5-1.1-1.1-1.1l0,0h-3.5v-2.2h3.5
	c0.6,0,1.1-0.5,1.1-1.1S57.3,39,56.7,39l0,0h-3.5v-2.2h3.5c0.6,0,1.1-0.5,1.1-1.1s-0.5-1.1-1.1-1.1l0,0h-3.5v-4.4
	c0-3.4-2.7-5.5-6.9-5.5s-6.9,2.2-6.9,5.5v25.1c-4.2,2.3-6.9,6.7-6.9,11.5C32.5,74,38.7,80,46.3,80s13.8-6,13.8-13.3
	C60.1,61.9,57.5,57.5,53.2,55.2z M46.3,26.8c1.4,0,4.6,0.3,4.6,3.3v4.4h-9.2v-4.4C41.7,27.1,44.9,26.8,46.3,26.8z"/>
<circle class="st0" cx="67.1" cy="26.9" r="6.9"/>
</svg>
