<svg id="Layer_1" data-name="Layer 1" xmlns="http://www.w3.org/2000/svg" viewBox="0 0 100 100"><defs><style>.cls-1{fill:#222;}</style></defs><path class="cls-1" d="M53.24,55.21v-.69H56.7a1.11,1.11,0,1,0,0-2.21H53.24V50.09H56.7a1.11,1.11,0,1,0,0-2.21H53.24V45.66H56.7a1.11,1.11,0,1,0,0-2.22H53.24V41.23H56.7a1.11,1.11,0,1,0,0-2.22H53.24V36.8H56.7a1.11,1.11,0,1,0,0-2.22H53.24V30.15c0-3.37-2.72-5.54-6.92-5.54s-6.93,2.17-6.93,5.54V55.21a13.13,13.13,0,0,0-6.92,11.5C32.47,74,38.68,80,46.32,80s13.84-6,13.84-13.3A13.13,13.13,0,0,0,53.24,55.21ZM46.32,26.82c1.38,0,4.61.33,4.61,3.33v4.43H41.7V30.15C41.7,27.15,44.93,26.82,46.32,26.82Z"/><circle class="cls-1" cx="67.09" cy="26.92" r="6.92"/></svg>