<?xml version="1.0" encoding="utf-8"?>
<!-- Generator: Adobe Illustrator 25.2.0, SVG Export Plug-In . SVG Version: 6.00 Build 0)  -->
<svg version="1.1" id="Layer_1" xmlns="http://www.w3.org/2000/svg" xmlns:xlink="http://www.w3.org/1999/xlink" x="0px" y="0px"
	 viewBox="0 0 100 100" style="enable-background:new 0 0 100 100;" xml:space="preserve">
<style type="text/css">
	.st0{fill:#F5F3FF;}
</style>
<path class="st0" d="M49.8,22.3c-1.2,0.1-2,1.1-2,2.3v4.6c0,1.3,1,2.3,2.3,2.3c1.3,0,2.3-1,2.3-2.3c0,0,0,0,0,0v-4.6
	c0-1.3-1-2.3-2.3-2.3C50,22.3,49.9,22.3,49.8,22.3L49.8,22.3z M31.7,29.7c-0.9,0.2-1.6,0.8-1.8,1.6c-0.2,0.8,0,1.7,0.6,2.3l3.2,3.2
	c0.8,1,2.2,1.2,3.2,0.4c1-0.8,1.2-2.2,0.4-3.2c-0.1-0.2-0.3-0.3-0.4-0.4l-3.2-3.2c-0.4-0.5-1-0.7-1.7-0.7
	C32.1,29.7,31.7,29.7,31.7,29.7z M67.7,29.7c-0.5,0.1-1,0.3-1.4,0.7l-3.2,3.2c-1,0.8-1.1,2.2-0.4,3.2c0.8,1,2.2,1.1,3.2,0.4
	c0.1-0.1,0.2-0.2,0.3-0.3l3.2-3.2c0.9-0.9,1-2.3,0.1-3.3c-0.5-0.5-1.1-0.8-1.8-0.7L67.7,29.7z M50.1,33.8c-8.9,0-16.2,7.2-16.2,16.1
	S41,66.1,50,66.1S66.1,59,66.2,50.1c0,0,0,0,0-0.1C66.2,41.1,59,33.9,50.1,33.8z M50.1,38.5c6.4,0,11.5,5.1,11.6,11.5
	s-5.1,11.5-11.5,11.6S38.6,56.4,38.6,50c0,0,0,0,0,0C38.6,43.6,43.7,38.5,50.1,38.5z M24.4,47.7c-1.3,0.2-2.1,1.4-1.9,2.7
	c0.2,1.1,1.2,2,2.4,2h4.6c0.8,0,1.6-0.4,2-1.1c0.4-0.7,0.4-1.6,0-2.3c-0.4-0.7-1.2-1.1-2-1.1L24.4,47.7L24.4,47.7z M70.4,47.7
	c-1.3,0-2.3,1.1-2.3,2.4c0,1.3,1.1,2.3,2.4,2.3c0.1,0,0.2,0,0.3,0h4.6c0.8,0,1.6-0.4,2-1.1c0.4-0.7,0.4-1.6,0-2.3
	c-0.4-0.7-1.2-1.1-2-1.1L70.4,47.7L70.4,47.7z M35.1,62.5c-0.5,0.1-1,0.3-1.3,0.7l-3.2,3.2c-0.9,0.9-0.8,2.4,0.1,3.3
	c0.9,0.8,2.2,0.8,3.1,0l3.2-3.2c1-0.8,1-2.3,0.2-3.3C36.7,62.6,35.9,62.3,35.1,62.5L35.1,62.5z M64.3,62.5c-0.9,0.2-1.6,0.8-1.8,1.6
	c-0.2,0.8,0,1.8,0.7,2.3l3.2,3.2c0.9,0.9,2.4,0.8,3.3-0.1c0.8-0.9,0.8-2.3,0-3.2l-3.2-3.2c-0.5-0.5-1.2-0.8-1.9-0.7H64.3z
	 M49.8,68.5c-1.2,0.2-2,1.1-2,2.3v4.6c0,0.8,0.4,1.6,1.1,2c1.1,0.6,2.5,0.3,3.1-0.8c0.2-0.4,0.3-0.8,0.3-1.2v-4.6
	c0-0.7-0.3-1.3-0.8-1.8C51.1,68.6,50.5,68.4,49.8,68.5L49.8,68.5z"/>
</svg>
