<?xml version="1.0" encoding="utf-8"?>
<!-- Generator: Adobe Illustrator 25.2.0, SVG Export Plug-In . SVG Version: 6.00 Build 0)  -->
<svg version="1.1" id="Layer_1" xmlns="http://www.w3.org/2000/svg" xmlns:xlink="http://www.w3.org/1999/xlink" x="0px" y="0px"
	 viewBox="0 0 100 100" style="enable-background:new 0 0 100 100;" xml:space="preserve">
<style type="text/css">
	.st0{fill:#F5F3FF;}
</style>
<path class="st0" d="M50,31.7c-16.5,0-27.1,17.2-27.1,17.2V49c-0.2,0.3-0.3,0.6-0.4,1c0,0.3,0.1,0.7,0.3,0.9V51
	c0,0,8.9,17.3,27.2,17.3S77.2,51,77.2,51v-0.1c0.2-0.3,0.3-0.6,0.3-0.9c0-0.4-0.1-0.7-0.4-1v0C77.1,49,66.5,31.7,50,31.7z M50,37.2
	c7.1,0,12.8,5.7,12.8,12.8S57.1,62.8,50,62.8S37.2,57.1,37.2,50C37.2,42.9,42.9,37.2,50,37.2C50,37.2,50,37.2,50,37.2z M50,44.5
	c-3,0-5.5,2.5-5.5,5.5s2.5,5.5,5.5,5.5s5.5-2.5,5.5-5.5S53,44.5,50,44.5L50,44.5z"/>
</svg>
