<?xml version="1.0" encoding="utf-8"?>
<!-- Generator: Adobe Illustrator 25.2.0, SVG Export Plug-In . SVG Version: 6.00 Build 0)  -->
<svg version="1.1" id="Layer_1" xmlns="http://www.w3.org/2000/svg" xmlns:xlink="http://www.w3.org/1999/xlink" x="0px" y="0px"
	 viewBox="0 0 100 100" style="enable-background:new 0 0 100 100;" xml:space="preserve">
<style type="text/css">
	.st0{fill:#F5F3FF;}
</style>
<path class="st0" d="M56.9,22.5c-5.3,0-9.6,4.3-9.6,9.6h5.5c0.1-2.3,2-4,4.3-3.9c2.1,0.1,3.8,1.8,3.9,3.9c0.1,2.2-1.7,4.1-3.9,4.1
	c-0.1,0-0.2,0-0.3,0H22.5v5.5h34.4c5.3-0.2,9.5-4.6,9.3-9.9C66,26.7,62,22.7,56.9,22.5z M22.5,47.2v5.5h44c3,0,5.5,2.5,5.5,5.5
	s-2.5,5.5-5.5,5.5S61,61.3,61,58.2h-5.5c0,6.1,4.9,11,11,11s11-4.9,11-11s-4.9-11-11-11H22.5z M22.5,58.2v5.5h17.9
	c2.3,0,4.1,1.8,4.1,4.1c0,2.3-1.8,4.1-4.1,4.1c-2.3,0-4.1-1.8-4.1-4.1c0,0,0,0,0,0h-5.5c0,5.3,4.3,9.6,9.6,9.6
	c5.3,0,9.6-4.3,9.6-9.6c0-5.3-4.3-9.6-9.6-9.6c0,0,0,0,0,0L22.5,58.2z"/>
</svg>
